inDegrees=no
num_controls=7
num_derivatives=13
num_iterations=115
num_multipliers=7
num_parameters=0
num_slacks=7
num_states=26
objective=0.431042
objective_accelerations=0.050455
objective_balance=0.006796
objective_effort=0.031334
objective_height=0.341305
objective_ligament=0.001152
solver_duration=1474.954641
status=Solve_Succeeded
success=true
DataType=double
version=3
OpenSimVersion=4.5
endheader
time	/jointset/ground_pelvis/pelvis_tilt/value	/jointset/ground_pelvis/pelvis_tx/value	/jointset/ground_pelvis/pelvis_ty/value	/jointset/hip_l/hip_flexion_l/value	/jointset/hip_l/hip_adduction_l/value	/jointset/hip_l/hip_rotation_l/value	/jointset/back/lumbar_extension/value	/jointset/patellofemoral_l/patellar_flexion_l/value	/jointset/knee_l/knee_flexion_l/value	/jointset/knee_l/knee_adduction_l/value	/jointset/knee_l/knee_rotation_l/value	/jointset/ankle_l/ankle_angle_l/value	/jointset/subtalar_l/subtalar_angle_l/value	/jointset/ground_pelvis/pelvis_tilt/speed	/jointset/ground_pelvis/pelvis_tx/speed	/jointset/ground_pelvis/pelvis_ty/speed	/jointset/hip_l/hip_flexion_l/speed	/jointset/hip_l/hip_adduction_l/speed	/jointset/hip_l/hip_rotation_l/speed	/jointset/back/lumbar_extension/speed	/jointset/patellofemoral_l/patellar_flexion_l/speed	/jointset/knee_l/knee_flexion_l/speed	/jointset/knee_l/knee_adduction_l/speed	/jointset/knee_l/knee_rotation_l/speed	/jointset/ankle_l/ankle_angle_l/speed	/jointset/subtalar_l/subtalar_angle_l/speed	/forceset/tau_hip_flexion_l	/forceset/tau_hip_adduction_l	/forceset/tau_hip_rotation_l	/forceset/tau_knee_flexion_l	/forceset/tau_ankle_angle_l	/forceset/tau_subtalar_angle_l	/forceset/tau_lumbar_extension	lambda_cid13_p0	lambda_cid13_p1	lambda_cid13_p2	lambda_cid13_p3	lambda_cid13_p4	lambda_cid13_p5	lambda_cid14_p0	/jointset/ground_pelvis/pelvis_tilt/accel	/jointset/ground_pelvis/pelvis_tx/accel	/jointset/ground_pelvis/pelvis_ty/accel	/jointset/hip_l/hip_flexion_l/accel	/jointset/hip_l/hip_adduction_l/accel	/jointset/hip_l/hip_rotation_l/accel	/jointset/back/lumbar_extension/accel	/jointset/patellofemoral_l/patellar_flexion_l/accel	/jointset/knee_l/knee_flexion_l/accel	/jointset/knee_l/knee_adduction_l/accel	/jointset/knee_l/knee_rotation_l/accel	/jointset/ankle_l/ankle_angle_l/accel	/jointset/subtalar_l/subtalar_angle_l/accel	gamma_cid13_p0	gamma_cid13_p1	gamma_cid13_p2	gamma_cid13_p3	gamma_cid13_p4	gamma_cid13_p5	gamma_cid14_p0
0.5	-0.3318105546245372	-0.02935449236475884	0.7668451324609362	1.162627543874386	-0.3048660280981366	0.01039224001712148	-0.3216761480572707	0.81427838766737	0.8142783876675691	-0.1734589105644763	0.1666298427741892	0.1650986501896363	-0.01898604402873635	-0.4308181891930242	-0.1629902773799679	-0.5088142292511361	2.120417948979767	0.01128062928625613	0.7015080641746742	-0.6294132897755131	2.114630174049793	2.114630174048722	-0.006567455543856695	0.04530048095982776	0.5483116429826459	0.1029249086437221	-0.185239019757282	0.01706601144074493	-0.02623391707154154	-0.2581717233909457	0.1002475807621203	0.03993807010400865	0.1847884227421415	-5.809376764244959	-19.11755050085577	5.831865793683855	-2.019272767357703	-603.8726138545177	-61.24018615527441	-20.64245011020827	0.4892241830417008	0.5511886101937541	-0.4404922026933191	-1.28353676384302	0.6879371151274869	-0.3541151407026678	1.610265712563191	-1.3328993991134	-1.332899399113408	0.05630776589609777	-0.09299261789194445	-0.5571149646289588	0.7101027670690261	-4.2507662255494e-07	-4.359459365045491e-07	2.66265147499901e-06	2.917715289868759e-07	-5.118702698318989e-07	-2.853833394603352e-07	-4.141562685639151e-07
0.51	-0.3360933790310601	-0.03095664234985429	0.7617360544309312	1.183764000705773	-0.304720358805822	0.01739080557988771	-0.3278894260734372	0.8353545488161395	0.8353545488164847	-0.1735254387161143	0.1670778644400583	0.170552531315221	-0.01792308585091531	-0.4256953724744992	-0.1574262800478257	-0.512892219910251	2.106592587941651	0.01782293209118802	0.6981097361735111	-0.6131704175256378	2.100313791441531	2.10031379144111	-0.006733189765445097	0.04431125094888853	0.5423743518524706	0.1096375141194382	-0.1914282578306832	0.01742974274114982	-0.02631112793058332	-0.2610976737517538	0.09872916751563979	0.03998572230165978	0.1899809736205581	-6.53038482677571	-18.91568348927673	5.689662123817942	-1.764855323460308	-608.2410088838768	-60.91502957292644	-19.35100483352094	0.5314746221861846	0.5610787546692491	-0.3751773859331083	-1.474206371756368	0.632481898849676	-0.3473466352597351	1.642082371018883	-1.524167014432487	-1.524167014335052	-0.05223635355176837	-0.1012918592207987	-0.625552196578992	0.64721425712017	-3.938436016648888e-07	-3.450177791349454e-07	2.545404231129242e-06	2.856710300468243e-07	-4.771195005841866e-07	-1.949365870341609e-07	-3.89864437577809e-07
0.52	-0.3403234424292121	-0.03250273766963938	0.7565894515166525	1.204753769807187	-0.3045102454783233	0.02435245686155465	-0.3339381184891411	0.8562789142742767	0.8562789142747741	-0.1735934686774416	0.1675161130725122	0.1759443363276305	-0.01679392665447766	-0.420265987518842	-0.1517793443178946	-0.5163192061058707	2.091080402985113	0.0241694363230658	0.6941252079548833	-0.5964961696829948	2.084271035923272	2.0842710359235	-0.00686781748165186	0.04334587427691375	0.5358964203476084	0.1161651123670454	-0.1976174959040855	0.01779347404155348	-0.02638833878962594	-0.2640236241125624	0.09721075426915889	0.04003337449930939	0.1951735244989741	-7.25660332509482	-18.71442408585976	5.54929343198393	-1.525015933553077	-612.7136264454649	-60.67348634931924	-18.0586423885263	0.550537830468168	0.5677762897515202	-0.3102913099942444	-1.620901547527484	0.6487774005166662	-0.47135518419564	1.696540831116736	-1.678173981112855	-1.678173981112886	0.06252906697242547	-0.08822195009905641	-0.6652430395663205	0.6731013214472575	-3.650135969942947e-07	-2.535794338941972e-07	2.433303241081434e-06	2.817611035342413e-07	-4.469097844478119e-07	-1.105741887324403e-07	-3.661877488952261e-07
0.53	-0.3444977887353773	-0.0339920146349177	0.7514118728224891	1.225580238271636	-0.3042374609975653	0.03127154074830257	-0.3398179738066542	0.877034408789968	0.877034408789627	-0.1736623831517362	0.1679445554428376	0.1812688217638334	-0.01560020191755756	-0.4145566508692112	-0.1460681499349881	-0.5190829287007951	2.073942459133584	0.03035911793046209	0.6896172074649416	-0.5794146742424207	2.066548731052412	2.06654873105231	-0.006909254749199087	0.04232759580620513	0.5289202061774886	0.1225531218527986	-0.2037098002815861	0.01797778383179267	-0.02639607339289138	-0.2670010380633344	0.09572448353691426	0.0399764187972719	0.2002611002417256	-7.977758365520877	-18.46324042324664	5.394818711935252	-1.243601155930715	-617.2036668428435	-60.38935877230416	-16.76859937485823	0.5880979888033713	0.5740317744588317	-0.2424583387514588	-1.800903609470595	0.59947794072939	-0.4519852836190651	1.722986837103966	-1.861058414157065	-1.861058414206469	-0.03656879999680372	-0.1113523543174505	-0.7258563637266681	0.6173974269212837	-3.357323106617063e-07	-1.570290544692419e-07	2.32068273719353e-06	2.783638324714633e-07	-4.169233442022413e-07	-2.638315704402067e-08	-3.417404618984671e-07
0.54	-0.3486136483937275	-0.03542393150398724	0.7462100477814745	1.246227194736469	-0.3039036968207577	0.03814325206970599	-0.3455252075824463	0.8976043203221338	0.8976043203209514	-0.1737315297339819	0.168362270716704	0.1865211359067368	-0.01434344775282354	-0.4085686579558664	-0.1403073250761399	-0.5211684754761198	2.055178003061855	0.03636537553298946	0.6846506948859749	-0.5619718613387973	2.047154439218174	2.047154439217743	-0.006914239071886429	0.0412004549850689	0.5214621616876945	0.1287709979298295	-0.2098021046590866	0.01816209362203245	-0.02640380799615388	-0.2699784520141066	0.09423821280466989	0.03991946309523511	0.205348675984477	-8.704083785223407	-18.21217110523766	5.241528723690417	-0.9753087604123554	-621.7939439630721	-60.18114218255889	-15.48581667559691	0.6062690832110048	0.5777023849398796	-0.1746561460743143	-1.946203991567445	0.6120925995428814	-0.5630576020006313	1.768804323726594	-2.012571373788216	-2.012571373788235	0.06981965594440186	-0.1099944201845816	-0.7616091035011946	0.6390746397028043	-3.059517339796773e-07	-5.482280743622766e-08	2.207487452035731e-06	2.755337546722993e-07	-3.871839326018157e-07	5.761827754032128e-08	-3.164405980434708e-07
0.55	-0.3526683505863544	-0.03679804176027272	0.7409907879149485	1.266678594036879	-0.3035106480170764	0.04496300604546317	-0.3510562680005013	0.9179721241147409	0.9179721241140131	-0.1738002338040849	0.1687680981790077	0.1916966265555562	-0.01302520165464312	-0.4023309709242318	-0.134510832444062	-0.5225665256450932	2.034838992188935	0.04221114030937381	0.6792243262530552	-0.5441910453635164	2.026137926266543	2.026137926266479	-0.006820258252552946	0.03995307298137268	0.513565204374428	0.1348455825421935	-0.2157219657062207	0.01823901739796363	-0.02635215184794293	-0.2730762604310705	0.0929325009706265	0.03968679227394397	0.2102772963104591	-9.376451804996741	-17.8846464910957	5.065094073241257	-0.712761556394107	-626.3572859045313	-59.87211862380219	-14.21418610809358	0.6386200973899064	0.5812615608909334	-0.104907817199665	-2.117209138571093	0.5655142525470045	-0.5440489453312476	1.790096770728606	-2.186389683214903	-2.18638968315982	-0.01981394528645707	-0.1343327432577615	-0.8143245197007766	0.586501832927567	-2.752060318333577e-07	2.811839367185192e-08	2.08052027584765e-06	2.680633587064028e-07	-3.563659717444899e-07	1.306734102272484e-07	-2.909523460841433e-07
0.5600000000000001	-0.356659455591815	-0.0381140593185276	0.7357610418737548	1.286918711327877	-0.303060202398459	0.0517261718446129	-0.3564080449515436	0.9381217230923584	0.9381217230920895	-0.1738677983140374	0.1691610072907166	0.1967910305363508	-0.01164723941815418	-0.3958492205225881	-0.1286887854700197	-0.5232657104097024	2.012921601179344	0.04784473852018932	0.6733330595643908	-0.5261151679362445	2.00351347622034	2.003513476220644	-0.006686327041790349	0.03861678486585138	0.5052448280827061	0.1407142255915325	-0.221641826753354	0.01831594117389718	-0.02630049569972147	-0.276174068848035	0.09162678913658394	0.03945412145265575	0.2152059166364415	-10.0537584648809	-17.55622352495461	4.888479504508414	-0.4642963741630499	-631.0152981356821	-59.62915661229329	-12.95660458645055	0.6550817572128345	0.582813253332767	-0.0348830652015038	-2.261880018901396	0.5696592864291137	-0.6560372131495619	1.827816614124788	-2.334158792702495	-2.334158792702455	0.07780973423022491	-0.1277756425496011	-0.8462928991922779	0.5978863270977911	-2.433021791298894e-07	8.794153967001062e-08	1.937026830423231e-06	2.550245809404272e-07	-3.242537517788841e-07	1.90592980637278e-07	-2.652380283996182e-07
